<?xml version="1.0" encoding="UTF-8" standalone="no"?>
<svg
   xmlns:dc="http://purl.org/dc/elements/1.1/"
   xmlns:cc="http://creativecommons.org/ns#"
   xmlns:rdf="http://www.w3.org/1999/02/22-rdf-syntax-ns#"
   xmlns:svg="http://www.w3.org/2000/svg"
   xmlns="http://www.w3.org/2000/svg"
   xmlns:sodipodi="http://sodipodi.sourceforge.net/DTD/sodipodi-0.dtd"
   xmlns:inkscape="http://www.inkscape.org/namespaces/inkscape"
   data-name="Layer 1"
   width="905.67538"
   height="730.51882"
   viewBox="0 0 905.67538 730.51882"
   version="1.1"
   id="svg82"
   sodipodi:docname="hero.svg"
   inkscape:version="0.92.5 (2060ec1f9f, 2020-04-08)">
  <metadata
     id="metadata88">
    <rdf:RDF>
      <cc:Work
         rdf:about="">
        <dc:format>image/svg+xml</dc:format>
        <dc:type
           rdf:resource="http://purl.org/dc/dcmitype/StillImage" />
      </cc:Work>
    </rdf:RDF>
  </metadata>
  <defs
     id="defs86" />
  <sodipodi:namedview
     pagecolor="#ffffff"
     bordercolor="#666666"
     borderopacity="1"
     objecttolerance="10"
     gridtolerance="10"
     guidetolerance="10"
     inkscape:pageopacity="0"
     inkscape:pageshadow="2"
     inkscape:window-width="1366"
     inkscape:window-height="704"
     id="namedview84"
     showgrid="false"
     inkscape:zoom="0.64611616"
     inkscape:cx="289.59399"
     inkscape:cy="339.312"
     inkscape:window-x="0"
     inkscape:window-y="27"
     inkscape:window-maximized="1"
     inkscape:current-layer="svg82" />
  <path
     d="m 752.50868,557.50025 c -2.25182,-18.10713 -13.47363,-35.94791 -30.74235,-41.84046 a 84.069145,84.069145 0 0 1 -0.004,57.71913 c -2.65353,7.17772 -6.35228,14.88479 -3.85628,22.11885 1.55299,4.50123 5.35215,7.94507 9.59885,10.09841 4.24697,2.15334 8.96021,3.17966 13.61446,4.18545 l 0.91599,0.75757 c 7.38855,-16.68377 12.7253,-34.93185 10.4735,-53.03895 z"
     id="path2"
     inkscape:connector-curvature="0"
     style="fill:#808000;stroke-width:0.67872542" />
  <path
     d="m 721.59497,516.00214 a 71.856465,71.856465 0 0 1 17.86341,40.44081 30.943771,30.943771 0 0 1 -0.35199,9.68891 17.747639,17.747639 0 0 1 -4.41407,8.23174 c -1.98952,2.18589 -4.27772,4.19142 -5.70123,6.82287 a 10.866958,10.866958 0 0 0 -0.5309,8.87136 c 1.25681,3.60478 3.73393,6.54297 6.2562,9.33211 2.8005,3.09679 5.7584,6.26902 6.94879,10.37456 0.14424,0.49744 0.90767,0.24455 0.76365,-0.25214 -2.07113,-7.14291 -9.00502,-11.20025 -12.31177,-17.63378 -1.543,-3.002 -2.19065,-6.48721 -0.74412,-9.65613 1.26493,-2.77108 3.62277,-4.84122 5.65633,-7.03707 a 18.938204,18.938204 0 0 0 4.6159,-7.88807 28.606831,28.606831 0 0 0 0.72323,-9.6396 69.713437,69.713437 0 0 0 -5.09148,-21.18538 73.130697,73.130697 0 0 0 -13.14983,-21.0733 c -0.34384,-0.38504 -0.87373,0.22063 -0.53212,0.60314 z"
     id="path4"
     inkscape:connector-curvature="0"
     style="fill:#ffffff;stroke-width:0.67872542" />
  <path
     d="m 739.24191,551.57623 a 10.780753,10.780753 0 0 0 8.20629,-11.29324 c -0.041,-0.51583 -0.84443,-0.47636 -0.8034,0.0401 a 9.9827684,9.9827684 0 0 1 -7.65503,10.48947 c -0.50344,0.1197 -0.24841,0.88266 0.25214,0.76364 z"
     id="path6"
     inkscape:connector-curvature="0"
     style="fill:#ffffff;stroke-width:0.67872542" />
  <path
     d="m 735.84707,573.38813 a 20.779057,20.779057 0 0 1 -9.27909,-11.96721 c -0.14599,-0.49691 -0.90949,-0.24417 -0.76365,0.25215 a 21.613374,21.613374 0 0 0 9.68105,12.43333 c 0.44592,0.26452 0.80521,-0.45518 0.36169,-0.71827 z"
     id="path8"
     inkscape:connector-curvature="0"
     style="fill:#ffffff;stroke-width:0.67872542" />
  <path
     d="m 731.38131,529.51123 a 6.1024204,6.1024204 0 0 1 -5.78304,-0.29357 c -0.44237,-0.27004 -0.80118,0.45 -0.3617,0.71827 a 6.8382606,6.8382606 0 0 0 6.39688,0.33894 0.41560395,0.41560395 0 0 0 0.25575,-0.50789 0.40411991,0.40411991 0 0 0 -0.50789,-0.25575 z"
     id="path10"
     inkscape:connector-curvature="0"
     style="fill:#ffffff;stroke-width:0.67872542" />
  <path
     d="m 669.12883,548.0013 c 0.27142,0.17647 0.54285,0.35294 0.8146,0.53619 a 80.366311,80.366311 0 0 1 10.27567,8.0225 c 0.25121,0.22398 0.50241,0.45474 0.74666,0.68551 a 84.723437,84.723437 0 0 1 18.40015,25.18753 82.276787,82.276787 0 0 1 4.50684,11.66051 c 1.663,5.51803 3.02711,11.63335 6.31896,16.14688 a 14.114163,14.114163 0 0 0 1.09962,1.35745 h 29.74859 c 0.0676,-0.0339 0.13555,-0.0611 0.20348,-0.095 l 1.18777,0.0543 c -0.0477,-0.2104 -0.10174,-0.42759 -0.14946,-0.638 -0.0272,-0.12217 -0.061,-0.24434 -0.0881,-0.36651 -0.0202,-0.0815 -0.0408,-0.1629 -0.0543,-0.23756 -0.007,-0.0271 -0.0136,-0.0543 -0.0202,-0.0747 -0.0136,-0.0747 -0.0341,-0.14254 -0.0477,-0.21041 q -0.44789,-1.82238 -0.92297,-3.64476 c 0,-0.007 0,-0.007 -0.007,-0.0136 -2.43685,-9.25103 -5.66742,-18.37988 -10.18088,-26.72821 -0.13587,-0.25113 -0.27142,-0.50904 -0.42088,-0.76017 a 78.51111,78.51111 0 0 0 -7.05206,-10.69671 69.406585,69.406585 0 0 0 -4.62216,-5.28727 57.716551,57.716551 0 0 0 -14.44313,-10.81889 c -10.66971,-5.63342 -23.02231,-7.79177 -34.4251,-4.35063 -0.29164,0.0883 -0.57698,0.17646 -0.86862,0.2715 z"
     id="path12"
     inkscape:connector-curvature="0"
     style="fill:#808000;stroke-width:0.67872542" />
  <path
     d="m 669.19571,548.37885 a 71.856519,71.856519 0 0 1 38.61109,21.53471 30.943771,30.943771 0 0 1 5.55235,7.94798 17.747645,17.747645 0 0 1 1.43169,9.23016 c -0.27247,2.94314 -0.89199,5.92209 -0.44428,8.88021 a 10.866964,10.866964 0 0 0 4.91728,7.40293 c 3.17382,2.12152 6.92066,2.97611 10.6138,3.68449 4.10053,0.78653 8.37216,1.53852 11.79445,4.09984 0.41466,0.31034 0.87196,-0.35122 0.45793,-0.66108 -5.95422,-4.45626 -13.93333,-3.52113 -20.44702,-6.66705 -3.03941,-1.46795 -5.65485,-3.86075 -6.40779,-7.26187 -0.65841,-2.97414 -0.0222,-6.0466 0.27945,-9.02421 a 18.938062,18.938062 0 0 0 -1.06361,-9.07727 28.606804,28.606804 0 0 0 -5.2263,-8.13212 69.713722,69.713722 0 0 0 -16.82031,-13.84992 73.130779,73.130779 0 0 0 -23.187,-8.90874 c -0.50633,-0.10041 -0.56478,0.7022 -0.0618,0.80195 z"
     id="path14"
     inkscape:connector-curvature="0"
     style="fill:#ffffff;stroke-width:0.67872542" />
  <path
     d="m 704.70387,566.15811 a 10.780766,10.780766 0 0 0 -0.24706,-13.95777 c -0.34326,-0.38717 -0.96103,0.12805 -0.61731,0.51573 a 9.982748,9.982748 0 0 1 0.20327,12.98412 c -0.3299,0.39868 0.33307,0.85432 0.66108,0.45792 z"
     id="path16"
     inkscape:connector-curvature="0"
     style="fill:#ffffff;stroke-width:0.67872542" />
  <path
     d="m 715.12553,585.61762 a 20.77903,20.77903 0 0 1 -14.61391,-3.96851 c -0.41575,-0.30886 -0.87317,0.3526 -0.45793,0.66108 a 21.613333,21.613333 0 0 0 15.2155,4.09867 c 0.51532,-0.0573 0.36886,-0.84823 -0.14366,-0.79127 z"
     id="path18"
     inkscape:connector-curvature="0"
     style="fill:#ffffff;stroke-width:0.67872542" />
  <path
     d="m 685.14296,553.27306 a 6.1024204,6.1024204 0 0 1 -4.79419,3.2474 c -0.51579,0.0507 -0.36877,0.84162 0.14366,0.79126 a 6.8382538,6.8382538 0 0 0 5.31161,-3.58074 0.41560395,0.41560395 0 0 0 -0.10158,-0.5595 0.4041267,0.4041267 0 0 0 -0.5595,0.10158 z"
     id="path20"
     inkscape:connector-curvature="0"
     style="fill:#ffffff;stroke-width:0.67872542" />
  <path
     d="m 457.56264,234.73226 h -2.71407 V 160.38105 A 43.032442,43.032442 0 0 0 411.81616,117.34856 H 254.29299 a 43.032442,43.032442 0 0 0 -43.03255,43.03232 v 407.89666 a 43.032455,43.032455 0 0 0 43.03241,43.03249 h 157.5231 A 43.032462,43.032462 0 0 0 454.8485,568.2777 V 287.65671 h 2.71411 z"
     id="path22"
     inkscape:connector-curvature="0"
     style="fill:#3f3d56;stroke-width:0.67872542" />
  <path
     d="m 413.55237,128.54412 h -20.56199 a 15.26784,15.26784 0 0 1 -14.13592,21.03406 H 288.6115 a 15.26784,15.26784 0 0 1 -14.13591,-21.03409 h -19.20492 a 32.136149,32.136149 0 0 0 -32.13619,32.13611 v 407.29811 a 32.136143,32.136143 0 0 0 32.13613,32.13619 h 158.28176 a 32.136156,32.136156 0 0 0 32.13618,-32.13615 v 0 -407.29811 a 32.136136,32.136136 0 0 0 -32.13618,-32.13612 z"
     id="path24"
     inkscape:connector-curvature="0"
     style="fill:#ffffff;stroke-width:0.67872542" />
  <rect
     x="300.31396"
     y="237.961"
     width="56.103321"
     height="5.2100048"
     id="rect26"
     style="fill:#808000;stroke-width:0.67872542" />
  <rect
     x="300.31396"
     y="255.98405"
     width="97.783379"
     height="5.2100048"
     id="rect28"
     style="fill:#e6e6e6;stroke-width:0.67872542" />
  <rect
     x="300.31396"
     y="274.00711"
     width="97.687645"
     height="5.2100048"
     id="rect30"
     style="fill:#e6e6e6;stroke-width:0.67872542" />
  <rect
     x="247.00713"
     y="238.03835"
     width="41.680054"
     height="41.680069"
     id="rect32"
     style="fill:#808000;stroke-width:0.67872542" />
  <rect
     x="300.31396"
     y="347.37115"
     width="56.103321"
     height="5.2099981"
     id="rect34"
     style="fill:#808000;stroke-width:0.67872542" />
  <rect
     x="300.31396"
     y="365.39423"
     width="97.783379"
     height="5.2099981"
     id="rect36"
     style="fill:#e6e6e6;stroke-width:0.67872542" />
  <rect
     x="300.31396"
     y="383.41727"
     width="97.687645"
     height="5.2099981"
     id="rect38"
     style="fill:#e6e6e6;stroke-width:0.67872542" />
  <rect
     x="247.00713"
     y="347.44852"
     width="41.680054"
     height="41.680054"
     id="rect40"
     style="fill:#808000;stroke-width:0.67872542" />
  <rect
     x="300.31396"
     y="456.78131"
     width="56.103321"
     height="5.2099981"
     id="rect42"
     style="fill:#808000;stroke-width:0.67872542" />
  <rect
     x="300.31396"
     y="474.80438"
     width="97.783379"
     height="5.2099981"
     id="rect44"
     style="fill:#e6e6e6;stroke-width:0.67872542" />
  <rect
     x="300.31396"
     y="492.82742"
     width="97.687645"
     height="5.2099981"
     id="rect46"
     style="fill:#e6e6e6;stroke-width:0.67872542" />
  <rect
     x="247.00713"
     y="456.85867"
     width="41.680054"
     height="41.680054"
     id="rect48"
     style="fill:#808000;stroke-width:0.67872542" />
  <polygon
     points="713.29,716.579 704.864,669.683 722.931,668.689 725.531,715.905 "
     id="polygon50"
     transform="matrix(0.67872544,0,0,0.67872544,145.48578,117.34856)"
     style="fill:#ffb6b6" />
  <path
     d="m 640.48466,611.1883 -26.78997,1.47524 -0.0187,-0.33885 a 10.443745,10.443745 0 0 1 9.85286,-11.00179 l 6.8e-4,-4e-5 16.36238,-0.90097 z"
     id="path52"
     inkscape:connector-curvature="0"
     style="fill:#2f2e41;stroke-width:0.67872542" />
  <polygon
     points="467.301,515.138 513.439,503.242 515.777,521.184 468.885,527.295 "
     id="polygon54"
     transform="matrix(0.67872544,0,0,0.67872544,145.48578,117.34856)"
     style="fill:#ffb6b6" />
  <path
     d="m 456.0063,478.38381 -3.46714,-26.60557 0.33652,-0.0439 a 10.443752,10.443752 0 0 1 11.70529,9.00571 l 9e-5,6.8e-4 2.11756,16.24979 z"
     id="path56"
     inkscape:connector-curvature="0"
     style="fill:#2f2e41;stroke-width:0.67872542" />
  <path
     d="m 568.76491,423.08842 a 7.1442979,7.1442979 0 0 1 1.06051,0.37541 l 28.47524,-17.94904 -0.30443,-8.17162 12.27238,-2.07131 1.94479,14.41388 a 5.4298035,5.4298035 0 0 1 -3.17816,5.6889 l -35.0016,15.53625 a 7.1246488,7.1246488 0 1 1 -5.26873,-7.82247 z"
     id="path58"
     inkscape:connector-curvature="0"
     style="fill:#ffb6b6;stroke-width:0.67872542" />
  <path
     d="m 597.00016,404.37639 a 3.050993,3.050993 0 0 1 -1.11643,-2.28508 l -0.37925,-15.32462 a 8.4823101,8.4823101 0 0 1 16.70547,-2.95349 l 4.8251,14.6025 a 3.0542645,3.0542645 0 0 1 -2.37712,3.96728 l -15.19802,2.64105 a 3.0508301,3.0508301 0 0 1 -2.45975,-0.64764 z"
     id="path60"
     inkscape:connector-curvature="0"
     style="fill:#808000;stroke-width:0.67872542" />
  <circle
     cx="620.67517"
     cy="341.35687"
     r="20.666822"
     id="circle62"
     style="fill:#2f2e41;stroke-width:0.67872542" />
  <circle
     cx="627.90472"
     cy="319.60522"
     r="8.5517979"
     id="circle64"
     style="fill:#2f2e41;stroke-width:0.67872542" />
  <path
     d="m 639.30712,314.973 a 8.5526192,8.5526192 0 0 0 -7.66097,-8.50555 8.6400187,8.6400187 0 0 1 0.89083,-0.0462 8.5517912,8.5517912 0 0 1 0,17.10358 8.6533692,8.6533692 0 0 1 -0.89083,-0.0462 8.5526599,8.5526599 0 0 0 7.66097,-8.50557 z"
     id="path66"
     inkscape:connector-curvature="0"
     style="fill:#2f2e41;stroke-width:0.67872542" />
  <circle
     cx="620.6662"
     cy="350.75964"
     r="13.068167"
     id="circle68"
     style="fill:#ffb8b8;stroke-width:0.67872542" />
  <path
     d="m 642.41909,440.93582 c 0,0 -0.6223,15.55733 -3.11147,23.64719 -2.48917,8.08986 1.86691,122.59193 -0.31111,125.39225 -2.17802,2.80031 -12.4459,1.86686 -12.4459,1.86686 L 617.02567,532.187 c 0,0 -1.67635,-63.24795 -24.70123,-64.80366 -23.02489,-1.55572 -112.94635,7.1564 -112.94635,7.1564 l -1.86687,-12.75701 48.22779,-10.57899 c 0,0 44.18285,-15.2462 68.45234,-11.20129 24.26948,4.04492 48.22774,0.93337 48.22774,0.93337 z"
     id="path70"
     inkscape:connector-curvature="0"
     style="fill:#2f2e41;stroke-width:0.67872542" />
  <path
     d="m 639.61877,365.63827 c 2.48922,-1.86686 8.71212,0.62231 8.71212,0.62231 l 6.84525,20.22456 c 0,0 -3.42262,17.42424 -6.53409,27.06979 -3.11146,9.64555 -9.10559,52.28625 -7.86099,54.15316 1.24459,1.86691 -20.14225,-13.39287 -32.89929,-18.06011 -12.75705,-4.66723 -15.55737,-9.95672 -15.55737,-9.95672 0,0 14.00161,-19.91341 9.33442,-29.24781 -4.66719,-9.3344 -0.93345,-19.91341 -0.93345,-19.91341 l -1.86687,-10.579 10.57899,-5.9118 c 0,0 27.69207,-6.5341 30.18128,-8.40097 z"
     id="path72"
     inkscape:connector-curvature="0"
     style="fill:#808000;stroke-width:0.67872542" />
  <ellipse
     cx="618.27106"
     cy="336.97498"
     rx="14.252983"
     ry="8.5517979"
     id="ellipse74"
     style="fill:#2f2e41;stroke-width:0.67872542" />
  <path
     d="m 700.17546,371.08037 a 7.1448137,7.1448137 0 0 0 -0.38163,1.05828 l -31.92984,10.65332 -6.12845,-5.41392 -9.37938,8.181 9.91778,10.63859 a 5.4298035,5.4298035 0 0 0 6.41481,1.14655 l 34.19917,-17.23095 a 7.1246488,7.1246488 0 1 0 -2.71246,-9.0329 z"
     id="path76"
     inkscape:connector-curvature="0"
     style="fill:#ffb6b6;stroke-width:0.67872542" />
  <path
     d="m 666.7497,383.37774 -11.67407,10.08315 a 3.0542645,3.0542645 0 0 1 -4.57538,-0.67516 l -8.23842,-12.98626 a 8.4823101,8.4823101 0 0 1 12.87109,-11.0513 l 11.61441,10.00468 a 3.0542645,3.0542645 0 0 1 0.002,4.62492 z"
     id="path78"
     inkscape:connector-curvature="0"
     style="fill:#808000;stroke-width:0.67872542" />
  <path
     d="M 759.38255,613.17026 H 146.29394 a 0.80815159,0.80815159 0 0 1 0,-1.61629 h 613.08861 a 0.8081482,0.8081482 0 0 1 0,1.61629 z"
     id="path80"
     inkscape:connector-curvature="0"
     style="fill:#3f3d56;stroke-width:0.67872542" />
</svg>
